<?xml version="1.0" standalone="no"?>
<!DOCTYPE svg PUBLIC "-//W3C//DTD SVG 20010904//EN"
 "http://www.w3.org/TR/2001/REC-SVG-20010904/DTD/svg10.dtd">
<svg version="1.0" xmlns="http://www.w3.org/2000/svg"
 width="700.000000pt" height="700.000000pt" viewBox="0 0 700.000000 700.000000"
 preserveAspectRatio="xMidYMid meet">
<metadata>
Created by potrace 1.14, written by Peter Selinger 2001-2017
</metadata>
<g transform="translate(0.000000,700.000000) scale(0.100000,-0.100000)"
fill="#000000" stroke="none">
<path d="M4025 4735 c-33 -19 -64 -36 -69 -38 -5 -2 164 -307 376 -678 451
-788 1148 -2017 1148 -2024 0 -3 -84 -5 -188 -5 l-188 0 -156 268 c-86 147
-189 326 -228 397 -66 118 -478 817 -927 1573 l-174 293 -62 -34 c-34 -19
-101 -55 -148 -81 l-87 -46 -678 -1185 -677 -1185 -189 0 c-103 0 -188 2 -188
5 0 5 262 477 435 785 45 80 154 269 242 420 88 151 222 388 297 525 76 138
147 265 158 284 10 18 17 35 16 37 -2 2 -82 -39 -178 -90 l-175 -93 -49 -84
c-92 -159 -787 -1391 -912 -1617 -69 -125 -137 -246 -150 -269 l-25 -43 708 0
709 0 31 53 c17 28 106 180 198 337 333 566 588 995 600 1008 9 10 105 -140
444 -693 l433 -705 695 0 694 0 -12 23 c-90 168 -1355 2397 -1628 2869 -9 16
-20 28 -26 28 -5 0 -37 -16 -70 -35z m185 -1582 c371 -631 677 -1150 678
-1155 2 -4 -96 -8 -217 -8 -151 0 -221 3 -221 11 0 6 25 52 55 103 l55 93
-512 871 c-388 658 -516 868 -524 859 -13 -13 -179 -294 -524 -882 -123 -209
-285 -482 -361 -607 -76 -125 -142 -236 -148 -246 -8 -15 0 -36 40 -107 28
-48 48 -89 46 -91 -2 -3 -92 -3 -200 -2 l-196 3 390 670 c215 369 517 887 671
1153 154 265 283 482 287 482 3 0 310 -516 681 -1147z"/>
<path d="M3212 2301 c-160 -253 -292 -462 -292 -465 0 -4 41 -5 92 -4 l92 3
57 85 c55 81 312 478 335 516 9 16 38 -22 202 -266 105 -157 204 -300 219
-318 l28 -33 88 3 87 3 -301 460 c-166 253 -304 463 -308 467 -3 4 -138 -199
-299 -451z"/>
<path d="M1109 1444 c-10 -17 -19 -35 -19 -40 0 -5 1028 -8 2423 -6 1919 2
2421 5 2419 15 -2 6 -10 22 -18 34 l-14 23 -2386 2 -2385 3 -20 -31z"/>
<path d="M1055 1330 l-16 -30 2476 0 2476 0 -16 30 -16 30 -2444 0 -2444 0
-16 -30z"/>
</g>
</svg>
